<?xml version="1.0" encoding="UTF-8"?>
<svg id="Layer_1" data-name="Layer 1" xmlns="http://www.w3.org/2000/svg" viewBox="0 0 26.95 33.6">
  <defs>
    <style>
      .cls-1 {
        fill: #231f20;
      }

      .cls-2 {
        isolation: isolate;
      }
    </style>
  </defs>
  <g class="cls-2">
    <g class="cls-2">
      <path class="cls-1" d="M26.95,0v26.16c0,4.11-3.33,7.45-7.45,7.45h-7.23c-.38-3.97-1.94-6.78-3.71-9.94-.76-1.36-1.54-2.77-2.32-4.4-2.19-4.64-2.27-9.4-2.19-11.35.02-.52-.36-.96-.88-1.03-.58-.07-1.1.37-1.12.95-.09,2.16,0,7.22,2.39,12.28.8,1.69,1.6,3.13,2.37,4.52,1.68,3.01,3.07,5.51,3.44,8.97H0V7.45C0,3.33,3.33,0,7.45,0h7.23c.38,3.97,1.94,6.78,3.71,9.94.76,1.36,1.54,2.78,2.32,4.4,2.19,4.64,2.27,9.4,2.19,11.35-.02.52.36.96.88,1.03.58.07,1.09-.37,1.12-.95.09-2.16,0-7.22-2.39-12.28-.8-1.69-1.6-3.13-2.37-4.52-1.68-3.01-3.07-5.51-3.44-8.97h10.25Z"/>
    </g>
  </g>
</svg>